<?xml version="1.0" encoding="UTF-8"?>
<svg id="Capa_1" data-name="Capa 1" xmlns="http://www.w3.org/2000/svg" viewBox="0 0 409.52 338.3">
  <defs>
    <style>
      .cls-1 {
        fill: #163c69;
      }

      .cls-2 {
        fill: #94b7b9;
      }
    </style>
  </defs>
  <g>
    <circle class="cls-2" cx="165.19" cy="244.87" r="6.44"/>
    <circle class="cls-2" cx="335.73" cy="244.87" r="6.44"/>
    <path class="cls-1" d="M74.11,257.06h11.2v36.68h-11.16v-5.34c-.2-.1-.4-.21-.6-.31-.93.88-1.93,1.69-2.77,2.65-1.89,2.13-4.16,3.52-6.96,4.15-9.13,2.05-16.91-2.27-19.24-11.34-2.01-7.8-1.63-15.59,3.47-22.33,2.21-2.92,5.51-4.75,9.16-5.26,4.37-.61,8.77-.45,12.36,2.71,1.09.96,1.91,2.22,2.9,3.31.3.33.73.53,1.1.79.18-.43.5-.85.52-1.28.07-1.41.02-2.83.02-4.44ZM55.97,275.69c0,.28-.07,1,.01,1.7.34,2.71,1.29,5.24,3.67,6.68,5.51,3.31,14.31,1.72,15.07-7.43.35-4.15-.6-7.92-4.42-10.18-3.32-1.97-6.93-1.93-10.28.05-3.29,1.94-4.23,5.13-4.06,9.19Z"/>
    <path class="cls-1" d="M283.72,287.05c-2.18,4.51-6.02,6.8-10.61,7.65-5.6,1.04-11.23,1.14-16.64-1.28-6.83-3.06-10.53-8.35-11.16-15.72-.59-6.86,1.64-12.75,6.94-17.26,4.07-3.46,8.88-4.8,14.23-4.72,4.81.07,9.11,1.38,12.74,4.49,3.2,2.74,5.1,6.36,5.95,10.45.44,2.12.53,4.31.81,6.8-.89,0-1.56,0-2.23,0-8.26,0-16.51.04-24.77-.04-1.71-.02-2.11.57-1.91,2.13.45,3.52,1.75,6.47,5.39,7.67,3.75,1.24,7.33.94,10.42-1.82.67-.6,1.3-1.23,1.97-1.87,2.89,1.14,5.83,2.31,8.87,3.51ZM273.58,270.9c-.19-5.33-4.32-8.38-8.91-8.14-4.1.22-7.26,3.76-7.2,8.14h16.11Z"/>
    <path class="cls-1" d="M210.61,259.01c-.87,2.78-1.66,5.32-2.51,8.05-3.47-2.25-7.16-3.44-11.22-3.24-.64.03-1.46-.13-1.89.19-.96.72-2.23,1.59-2.43,2.59-.16.8.86,2.34,1.73,2.75,2.41,1.13,5.01,1.86,7.54,2.73,3.03,1.04,6.01,2.15,8.13,4.76,2.99,3.67,2.32,10.12-.79,13.42-3.37,3.58-7.44,4.89-12.2,5.03-4.82.14-9.45-.48-13.9-2.33-1.28-.53-2.51-1.21-3.91-1.89.83-3.06,1.64-6.03,2.5-9.16,4.05,3.39,8.63,4.93,13.73,4.85,1.01-.02,2.19-.03,2.99-.53.87-.54,1.68-1.55,1.98-2.52.38-1.25.08-2.65-1.43-3.19-2.64-.95-5.36-1.67-7.95-2.74-2.41-1-4.94-1.99-6.95-3.57-4.05-3.19-3.95-10.49-.24-14.1,3.02-2.94,6.6-4.14,10.75-4.3,5.57-.23,10.81.87,16.05,3.2Z"/>
    <path class="cls-1" d="M366.07,293.85h-12.23v-57.26h12.23v57.26Z"/>
    <path class="cls-1" d="M222.16,265.48h-5.47v-8.49c1.25,0,2.53-.05,3.8.01,1.27.06,1.68-.46,1.66-1.71-.07-3.21-.02-6.41-.02-9.73h12.35c0,2.88,0,5.75,0,8.62q0,2.81,2.86,2.8c.9,0,1.79,0,2.83,0v8.39h-5.58v28.37h-12.42v-28.27Z"/>
    <path class="cls-1" d="M133.31,265.45h-5.82v-8.46c1.28,0,2.61-.06,3.93.02,1.45.08,1.93-.54,1.9-1.94-.07-3.13-.02-6.27-.02-9.5h12.14c0,3.11.1,6.12-.04,9.12-.08,1.8.53,2.48,2.31,2.32,1.08-.1,2.18-.02,3.41-.02v8.46c-1.31,0-2.58.08-3.85-.02-1.46-.12-1.86.46-1.86,1.88.06,8.43.03,16.87.03,25.3,0,.32,0,.64,0,1.13h-12.13v-28.29Z"/>
    <path class="cls-1" d="M96.79,257.03h11.51v7.99c.22.1.45.19.67.29.43-.56.94-1.08,1.26-1.69,2.69-5.14,6.99-7.6,12.73-7.65.74,0,1.48.2,2.29.32-.42,3.81-.81,7.4-1.14,10.43-3.29.34-6.47.12-9.22,1.08-4.35,1.52-5.6,5.51-5.7,9.77-.11,4.7-.03,9.4-.03,14.1,0,.64,0,1.28,0,2.08h-12.38v-36.72Z"/>
    <path class="cls-1" d="M307.23,293.84h-12.32v-36.76h11.44v7.97c.23.1.46.2.7.3.82-1.26,1.69-2.49,2.46-3.79,2.57-4.34,10.09-6.73,13.59-5.06-.33,3.6-.67,7.2-.96,10.39-2.84.16-5.37.19-7.86.47-4.64.53-7.07,6.01-7.06,9.7.01,4.89.01,9.79.02,14.68,0,.63,0,1.26,0,2.09Z"/>
    <path class="cls-1" d="M341.91,293.84h-12.38v-36.72h12.38v36.72Z"/>
    <path class="cls-1" d="M159.05,257.07h12.3v36.66h-12.3v-36.66Z"/>
  </g>
  <path class="cls-1" d="M204.74,42.9c-47.91,0-86.74,38.84-86.74,86.74s38.84,86.74,86.74,86.74,86.74-38.84,86.74-86.74-38.84-86.74-86.74-86.74ZM205.46,204.76c-41.89,0-75.86-33.96-75.86-75.86s33.96-75.86,75.86-75.86,75.86,33.96,75.86,75.86-33.96,75.86-75.86,75.86Z"/>
  <path class="cls-2" d="M89.15,104.85s144.49-12.23,155.45,14.13c10.96,26.36-136.71,82.57-136.71,82.57,0,0,94.7-55.26,89.19-72.25-5.51-16.99-107.92-24.45-107.92-24.45Z"/>
</svg>