<?xml version="1.0" encoding="UTF-8"?>
<svg id="Layer_2" data-name="Layer 2" xmlns="http://www.w3.org/2000/svg" xmlns:xlink="http://www.w3.org/1999/xlink" viewBox="0 0 580.01 253.92">
  <defs>
    <style>
      .cls-1 {
        fill: #4c4f60;
      }

      .cls-2 {
        fill: url(#linear-gradient);
      }

      .cls-3 {
        opacity: .25;
      }

      .cls-3, .cls-4 {
        fill: #fff;
      }

      .cls-5 {
        fill: #5776b7;
      }
    </style>
    <linearGradient id="linear-gradient" x1="36.31" y1="131.41" x2="156.67" y2="61.92" gradientTransform="translate(61.26 -35.3) rotate(30)" gradientUnits="userSpaceOnUse">
      <stop offset="0" stop-color="#303e92"/>
      <stop offset=".34" stop-color="#037aa9"/>
      <stop offset=".66" stop-color="#5577b7"/>
      <stop offset="1" stop-color="#8f73b4"/>
    </linearGradient>
  </defs>
  <g id="Layer_3" data-name="Layer 3">
    <g>
      <g>
        <g>
          <path class="cls-1" d="M18.83,225.6c1.33,0,2.54.15,3.62.44,1.08.29,2.01.76,2.79,1.4.78.64,1.37,1.47,1.79,2.49.42,1.02.62,2.28.62,3.77,0,2.29-.54,4.04-1.62,5.25-1.08,1.21-2.54,2.03-4.36,2.44l5.53,9.87c.19.35.42.55.69.62.26.07.5.1.73.1v.94h-7.77v-.94c.25,0,.46-.05.64-.16.18-.1.27-.24.27-.42s-.06-.37-.17-.6c-.11-.22-.28-.53-.5-.91l-4.57-8.11h-5.94v9.25c0,.31.09.54.27.7.18.16.51.23.98.23v.94h-7.19v-.94c.8,0,1.21-.31,1.21-.93v-23.59c0-.62-.4-.93-1.21-.93v-.94h14.22ZM17.75,237.76c1,0,1.83-.09,2.49-.29.67-.19,1.19-.46,1.58-.8.39-.35.67-.75.83-1.22.17-.47.25-.98.25-1.53s-.08-1.07-.25-1.53c-.17-.47-.44-.87-.83-1.22-.39-.35-.91-.61-1.58-.81-.67-.19-1.5-.29-2.49-.29h-7.19v7.69h7.19Z"/>
          <path class="cls-1" d="M54.54,225.29c1.52,0,3.08.29,4.66.86,1.58.57,3.02,1.43,4.32,2.57,1.3,1.14,2.37,2.59,3.2,4.34.83,1.75,1.25,3.82,1.25,6.21s-.42,4.46-1.25,6.21c-.83,1.75-1.9,3.2-3.2,4.34-1.3,1.14-2.74,1.97-4.32,2.49-1.58.52-3.13.78-4.66.78s-3.08-.26-4.66-.78c-1.58-.52-3.02-1.35-4.32-2.49-1.3-1.14-2.37-2.59-3.2-4.34-.83-1.75-1.25-3.82-1.25-6.21s.42-4.46,1.25-6.21c.83-1.75,1.9-3.2,3.2-4.34,1.3-1.14,2.74-2,4.32-2.57,1.58-.57,3.13-.86,4.66-.86ZM54.54,230.07c-1.05,0-2.11.21-3.16.62-1.05.42-2,1.01-2.85,1.79-.85.78-1.53,1.74-2.06,2.88-.53,1.14-.79,2.44-.79,3.9s.26,2.75.79,3.9c.53,1.14,1.21,2.1,2.06,2.88.84.78,1.79,1.38,2.85,1.79,1.05.42,2.11.62,3.16.62s2.11-.21,3.16-.62c1.05-.42,2-1.01,2.85-1.79.84-.78,1.53-1.74,2.06-2.88.53-1.14.79-2.44.79-3.9s-.26-2.75-.79-3.9c-.53-1.14-1.21-2.1-2.06-2.88-.85-.78-1.79-1.38-2.85-1.79-1.05-.42-2.11-.62-3.16-.62Z"/>
          <path class="cls-1" d="M94.23,225.6c1.27,0,2.51.13,3.7.39,1.19.26,2.24.68,3.16,1.25s1.65,1.32,2.2,2.23c.55.92.83,2.05.83,3.4,0,1.63-.4,2.88-1.21,3.77-.8.88-1.76,1.57-2.87,2.05v.1c1.3.49,2.4,1.26,3.3,2.31s1.35,2.57,1.35,4.55c0,1.04-.18,2-.54,2.88-.36.88-.89,1.65-1.6,2.31s-1.57,1.17-2.6,1.53c-1.03.36-2.19.55-3.49.55h-15.25v-.94c.78,0,1.16-.31,1.16-.93v-23.59c0-.62-.39-.93-1.16-.93v-.94h13.01ZM95.06,236.31c1.25,0,2.28-.2,3.1-.6.82-.4,1.23-1.24,1.23-2.52s-.41-2.12-1.23-2.52-1.85-.6-3.1-.6h-7.94v6.23h7.94ZM95.06,248.15c1.75,0,3-.34,3.76-1.01.76-.68,1.14-1.57,1.14-2.68s-.38-2-1.14-2.68c-.76-.67-2.02-1.01-3.76-1.01h-7.94v7.38h7.94Z"/>
          <path class="cls-1" d="M131.02,225.29c1.52,0,3.08.29,4.66.86,1.58.57,3.02,1.43,4.32,2.57,1.3,1.14,2.37,2.59,3.2,4.34.83,1.75,1.25,3.82,1.25,6.21s-.42,4.46-1.25,6.21c-.83,1.75-1.9,3.2-3.2,4.34-1.3,1.14-2.74,1.97-4.32,2.49-1.58.52-3.13.78-4.66.78s-3.08-.26-4.66-.78c-1.58-.52-3.02-1.35-4.32-2.49-1.3-1.14-2.37-2.59-3.2-4.34-.83-1.75-1.25-3.82-1.25-6.21s.42-4.46,1.25-6.21c.83-1.75,1.9-3.2,3.2-4.34,1.3-1.14,2.74-2,4.32-2.57,1.58-.57,3.13-.86,4.66-.86ZM131.02,230.07c-1.05,0-2.11.21-3.16.62-1.05.42-2,1.01-2.85,1.79-.85.78-1.53,1.74-2.06,2.88-.53,1.14-.79,2.44-.79,3.9s.26,2.75.79,3.9c.53,1.14,1.21,2.1,2.06,2.88.84.78,1.79,1.38,2.85,1.79,1.05.42,2.11.62,3.16.62s2.11-.21,3.16-.62c1.05-.42,2-1.01,2.85-1.79.84-.78,1.53-1.74,2.06-2.88.53-1.14.79-2.44.79-3.9s-.26-2.75-.79-3.9c-.53-1.14-1.21-2.1-2.06-2.88-.85-.78-1.79-1.38-2.85-1.79-1.05-.42-2.11-.62-3.16-.62Z"/>
          <path class="cls-1" d="M169.3,251.06c0,.62.3.93.91.93v.94h-6.4v-.94c.19,0,.37-.08.52-.23.15-.16.23-.39.23-.7v-20.68h-6.86c-.25,0-.49.09-.73.26-.24.17-.35.5-.35.99h-.75v-7.27h.75c0,.49.12.81.35.99.23.17.48.26.73.26h18.46c.25,0,.49-.09.73-.26.24-.17.35-.5.35-.99h.75v7.27h-.75c0-.48-.12-.81-.35-.99-.24-.17-.48-.26-.73-.26h-6.86v20.68Z"/>
          <path class="cls-1" d="M190.17,252c.72,0,1.08-.31,1.08-.93v-23.59c0-.62-.36-.93-1.08-.93v-.94h6.9v.94c-.72,0-1.08.31-1.08.93v23.59c0,.62.36.93,1.08.93v.94h-6.9v-.94Z"/>
          <path class="cls-1" d="M234.27,249.19c-.08,0-.16,0-.23-.03-.07-.02-.15-.03-.23-.03-.17,0-.56.21-1.18.62-.62.42-1.41.88-2.37,1.4s-2.04.97-3.26,1.35c-1.22.38-2.49.57-3.82.57-1.75,0-3.42-.28-5.03-.83-1.61-.55-3.03-1.41-4.26-2.57-1.23-1.16-2.21-2.61-2.93-4.34-.72-1.73-1.08-3.76-1.08-6.08s.36-4.3,1.08-6.05c.72-1.75,1.7-3.21,2.93-4.39,1.23-1.18,2.65-2.06,4.26-2.65,1.61-.59,3.28-.88,5.03-.88,1.41,0,2.69.14,3.84.42,1.15.28,2.15.57,3.01.88.86.31,1.54.61,2.04.88.5.28.8.42.91.42.14,0,.26-.09.35-.26.1-.17.17-.31.23-.42l.62.62-3.24,6.29-.42-.36c0-.1,0-.21-.02-.31-.01-.1-.04-.22-.06-.36-.06-.38-.33-.77-.83-1.17-.5-.4-1.12-.75-1.85-1.07-.73-.31-1.51-.57-2.33-.78s-1.57-.31-2.27-.31c-1.16,0-2.28.21-3.35.62-1.07.42-2,1.02-2.78,1.82-.79.8-1.42,1.78-1.89,2.94-.47,1.16-.71,2.49-.71,3.97s.24,2.82.71,3.98,1.1,2.14,1.89,2.94c.79.8,1.72,1.4,2.78,1.82,1.07.42,2.18.62,3.35.62.89,0,1.81-.13,2.79-.39.97-.26,1.86-.59,2.66-.99.8-.4,1.48-.85,2.02-1.35.54-.5.81-.98.81-1.43,0-.24-.06-.45-.17-.62l.58-.42,2.74,5.51-.33.42Z"/>
          <path class="cls-1" d="M249.9,244.36l.42.26c0,.31.06.59.17.83.19.42.57.82,1.14,1.22.57.4,1.22.75,1.95,1.06.73.31,1.5.56,2.31.75.8.19,1.52.29,2.16.29.47,0,1.08-.04,1.83-.13s1.48-.27,2.2-.55c.72-.28,1.34-.66,1.87-1.14.53-.48.79-1.12.79-1.92s-.24-1.38-.73-1.77c-.49-.38-1.12-.66-1.91-.83-.79-.17-1.69-.29-2.7-.34-1.01-.05-2.04-.13-3.1-.23-1.05-.1-2.09-.28-3.1-.52-1.01-.24-1.91-.65-2.7-1.22-.79-.57-1.43-1.35-1.91-2.34s-.73-2.28-.73-3.87c0-1.07.2-2.13.6-3.17.4-1.04,1.02-1.96,1.85-2.75.83-.8,1.88-1.45,3.16-1.95,1.27-.5,2.77-.75,4.49-.75,1.47,0,2.74.14,3.82.42,1.08.28,2.02.57,2.81.88.79.31,1.45.61,2,.88.54.28.99.42,1.35.42.39,0,.67-.1.83-.31l.5.42-2.87,6.49-.42-.21c-.06-.48-.17-.88-.33-1.19-.22-.42-.59-.82-1.1-1.22-.51-.4-1.12-.75-1.81-1.06-.69-.31-1.44-.56-2.24-.75-.8-.19-1.61-.29-2.41-.29-.61,0-1.24.06-1.89.18-.65.12-1.24.3-1.77.54-.53.24-.96.56-1.31.96-.35.4-.52.89-.52,1.48,0,.83.24,1.46.73,1.87.48.42,1.12.73,1.91.94s1.69.35,2.7.42c1.01.07,2.04.16,3.1.26,1.05.1,2.08.29,3.1.54,1.01.26,1.91.68,2.7,1.25.79.57,1.43,1.34,1.91,2.31.48.97.73,2.23.73,3.79,0,1.8-.38,3.27-1.14,4.42-.76,1.14-1.71,2.04-2.85,2.7-1.14.66-2.36,1.1-3.68,1.33-1.32.22-2.54.34-3.68.34-1.58,0-2.9-.11-3.97-.34-1.07-.22-1.95-.5-2.66-.83-.71-.33-1.27-.62-1.68-.88-.42-.26-.78-.39-1.08-.39-.19,0-.37.14-.54.42l-.58-.42,2.29-6.29Z"/>
          <path class="cls-1" d="M307.88,252c.72,0,1.08-.31,1.08-.93v-23.59c0-.62-.36-.93-1.08-.93v-.94h6.9v.94c-.72,0-1.08.31-1.08.93v23.59c0,.62.36.93,1.08.93v.94h-6.9v-.94Z"/>
          <path class="cls-1" d="M329.12,252c.53,0,.79-.31.79-.93v-23.59c0-.62-.26-.93-.79-.93v-.94h7.11v.94c-.22,0-.33.17-.33.52,0,.28.28.76.83,1.46l11.93,15.48v-16.52c0-.62-.36-.93-1.08-.93v-.94h6.28v.94c-.53,0-.79.31-.79.93v23.59c0,.62.26.93.79.93v.94h-6.73v-.94c.36,0,.54-.16.54-.47,0-.24-.22-.64-.67-1.19l-12.68-16.52v17.25c0,.62.32.93.96.93v.94h-6.15v-.94Z"/>
          <path class="cls-1" d="M369.94,244.36l.42.26c0,.31.06.59.17.83.19.42.58.82,1.14,1.22.57.4,1.22.75,1.95,1.06.73.31,1.5.56,2.31.75.8.19,1.52.29,2.16.29.47,0,1.08-.04,1.83-.13s1.48-.27,2.2-.55c.72-.28,1.34-.66,1.87-1.14.53-.48.79-1.12.79-1.92s-.24-1.38-.73-1.77c-.49-.38-1.12-.66-1.91-.83-.79-.17-1.69-.29-2.7-.34s-2.04-.13-3.1-.23c-1.05-.1-2.08-.28-3.1-.52-1.01-.24-1.91-.65-2.7-1.22-.79-.57-1.43-1.35-1.91-2.34-.49-.99-.73-2.28-.73-3.87,0-1.07.2-2.13.6-3.17.4-1.04,1.02-1.96,1.85-2.75s1.88-1.45,3.16-1.95c1.27-.5,2.77-.75,4.49-.75,1.47,0,2.74.14,3.82.42,1.08.28,2.02.57,2.81.88s1.46.61,2,.88c.54.28.99.42,1.35.42.39,0,.67-.1.83-.31l.5.42-2.87,6.49-.42-.21c-.06-.48-.17-.88-.33-1.19-.22-.42-.59-.82-1.1-1.22-.51-.4-1.12-.75-1.81-1.06-.69-.31-1.44-.56-2.25-.75-.8-.19-1.61-.29-2.41-.29-.61,0-1.24.06-1.89.18-.65.12-1.24.3-1.77.54-.53.24-.96.56-1.31.96s-.52.89-.52,1.48c0,.83.24,1.46.73,1.87.48.42,1.12.73,1.91.94s1.69.35,2.7.42c1.01.07,2.04.16,3.1.26,1.05.1,2.08.29,3.1.54,1.01.26,1.91.68,2.7,1.25.79.57,1.43,1.34,1.91,2.31s.73,2.23.73,3.79c0,1.8-.38,3.27-1.14,4.42-.76,1.14-1.71,2.04-2.85,2.7-1.14.66-2.36,1.1-3.68,1.33s-2.54.34-3.68.34c-1.58,0-2.9-.11-3.97-.34s-1.95-.5-2.66-.83c-.71-.33-1.27-.62-1.68-.88-.42-.26-.78-.39-1.08-.39-.19,0-.37.14-.54.42l-.58-.42,2.29-6.29Z"/>
          <path class="cls-1" d="M414.58,251.06c0,.62.3.93.92.93v.94h-6.4v-.94c.19,0,.37-.08.52-.23.15-.16.23-.39.23-.7v-20.68h-6.86c-.25,0-.49.09-.73.26-.24.17-.35.5-.35.99h-.75v-7.27h.75c0,.49.12.81.35.99.24.17.48.26.73.26h18.46c.25,0,.49-.09.73-.26.24-.17.35-.5.35-.99h.75v7.27h-.75c0-.48-.12-.81-.35-.99-.24-.17-.48-.26-.73-.26h-6.86v20.68Z"/>
          <path class="cls-1" d="M435.45,252c.72,0,1.08-.31,1.08-.93v-23.59c0-.62-.36-.93-1.08-.93v-.94h6.9v.94c-.72,0-1.08.31-1.08.93v23.59c0,.62.36.93,1.08.93v.94h-6.9v-.94Z"/>
          <path class="cls-1" d="M467.95,251.06c0,.62.3.93.92.93v.94h-6.4v-.94c.19,0,.37-.08.52-.23.15-.16.23-.39.23-.7v-20.68h-6.86c-.25,0-.49.09-.73.26-.24.17-.35.5-.35.99h-.75v-7.27h.75c0,.49.12.81.35.99.24.17.48.26.73.26h18.46c.25,0,.49-.09.73-.26.24-.17.35-.5.35-.99h.75v7.27h-.75c0-.48-.12-.81-.35-.99-.24-.17-.48-.26-.73-.26h-6.86v20.68Z"/>
          <path class="cls-1" d="M494.93,226.54c-.61,0-.92.31-.92.93v15.59c0,2.18.56,3.68,1.68,4.49,1.12.81,2.76,1.22,4.93,1.22s3.8-.41,4.93-1.22c1.12-.81,1.68-2.31,1.68-4.49v-15.59c0-.62-.42-.93-1.25-.93v-.94h6.65v.94c-.67,0-1,.31-1,.93v15.33c0,2.04-.24,3.73-.71,5.07-.47,1.33-1.18,2.4-2.12,3.2s-2.11,1.33-3.51,1.61c-1.4.28-3.01.42-4.84.42s-3.44-.14-4.84-.42c-1.4-.28-2.57-.81-3.51-1.61s-1.65-1.86-2.12-3.2c-.47-1.33-.71-3.02-.71-5.07v-15.33c0-.62-.39-.93-1.16-.93v-.94h6.82v.94Z"/>
          <path class="cls-1" d="M537.49,251.06c0,.62.3.93.92.93v.94h-6.4v-.94c.19,0,.37-.08.52-.23.15-.16.23-.39.23-.7v-20.68h-6.86c-.25,0-.49.09-.73.26-.24.17-.35.5-.35.99h-.75v-7.27h.75c0,.49.12.81.35.99.24.17.48.26.73.26h18.46c.25,0,.49-.09.73-.26.24-.17.35-.5.35-.99h.75v7.27h-.75c0-.48-.12-.81-.35-.99-.24-.17-.48-.26-.73-.26h-6.86v20.68Z"/>
          <path class="cls-1" d="M579.02,231.21c0-.38-.12-.67-.35-.86-.24-.19-.64-.29-1.23-.29h-13.47v6.44h8.15c.55,0,.98-.09,1.29-.29.3-.19.46-.68.46-1.48h.75v8.11h-.75c0-.8-.15-1.31-.46-1.53-.31-.23-.73-.34-1.29-.34h-8.15v7.17h13.88c.42,0,.75-.12,1.02-.36s.4-.57.4-.99h.75v7.12h-.75c0-.52-.13-.81-.4-.88s-.6-.1-1.02-.1h-19.37v-.94c.19,0,.37-.08.52-.23.15-.16.23-.39.23-.7v-23.59c0-.31-.08-.54-.23-.7-.15-.16-.33-.23-.52-.23v-.94h18.95c.58,0,.99-.11,1.23-.34.24-.22.35-.53.35-.91h.75v6.86h-.75Z"/>
        </g>
        <rect class="cls-5" x="4.26" y="201.04" width="575.4" height="2.5"/>
      </g>
      <g>
        <g>
          <g>
            <path class="cls-1" d="M212.39,44.11v5.49h-9.79v28.66h-6.33v-28.66h-9.79v-5.49h25.92Z"/>
            <path class="cls-1" d="M215.37,78.26v-34.16h6.33v12.28c1.97-2.13,4.5-3.2,7.57-3.2,5.94,0,8.91,3.09,8.91,9.27v15.81h-6.33v-15.81c0-2.77-1.38-4.16-4.13-4.16-2.06,0-4.06.82-6.02,2.46v17.51h-6.33Z"/>
            <path class="cls-1" d="M254.74,53.18c7.61,0,11.42,3.88,11.42,11.66,0,1.03-.07,2.07-.21,3.11h-16.65c0,3.53,2.59,5.3,7.79,5.3,2.53,0,5.06-.24,7.6-.72v5.02c-2.21.48-4.91.72-8.07.72-9.09,0-13.64-4.28-13.64-12.83s3.93-12.25,11.78-12.25ZM249.29,63.55h10.7v-.19c0-3.47-1.75-5.21-5.25-5.21s-5.16,1.8-5.45,5.4Z"/>
          </g>
          <g>
            <path class="cls-1" d="M264.45,145.82c-5.1,1.93-10.89,2.89-17.37,2.89-21.23,0-31.84-10.27-31.84-30.81,0-19.43,10.61-29.15,31.84-29.15,6.48,0,12.27.97,17.37,2.89v9.92c-5.1-2.21-10.61-3.31-16.54-3.31-14.2,0-21.3,6.55-21.3,19.64,0,14.2,7.1,21.3,21.3,21.3,5.93,0,11.44-1.1,16.54-3.31v9.92Z"/>
            <path class="cls-1" d="M271.69,126.6c0-14.55,7.17-21.83,21.5-21.83s21.5,7.28,21.5,21.83-7.17,21.79-21.5,21.79-21.45-7.26-21.5-21.79ZM293.19,140.03c7.03,0,10.55-4.53,10.55-13.6s-3.52-13.27-10.55-13.27-10.54,4.43-10.54,13.27,3.52,13.6,10.54,13.6Z"/>
            <path class="cls-1" d="M322.96,148.3v-43.42h8.48l1.36,6.37c4.16-4.25,8.9-6.37,14.22-6.37,10.28,0,15.42,5.35,15.42,16.04v27.37h-10.96v-27.37c0-4.8-2.38-7.2-7.15-7.2-3.56,0-7.03,1.42-10.42,4.26v30.31h-10.96Z"/>
            <path class="cls-1" d="M372.78,146.24v-9.1c4.82,1.93,10.39,2.89,16.71,2.89,4.71,0,7.07-1.51,7.07-4.55s-1.59-4.34-4.76-4.34h-7.86c-8.82,0-13.23-4.34-13.23-13.03s6.44-13.65,19.31-13.65c5.46,0,10.6.83,15.42,2.48v9.1c-4.82-1.93-10.06-2.89-15.71-2.89-5.93,0-8.89,1.52-8.89,4.55s1.72,4.34,5.17,4.34h7.03c9.65,0,14.47,4.34,14.47,13.03s-6.15,13.65-18.44,13.65c-6.04,0-11.47-.83-16.29-2.48Z"/>
            <path class="cls-1" d="M414.55,97.86h8.1l1.65,7.03h10.92v8.68h-9.72v19.97c0,4.05,1.75,6.08,5.25,6.08h4.47v8.68h-9.76c-7.28,0-10.92-3.9-10.92-11.7v-38.75Z"/>
            <path class="cls-1" d="M442.66,148.3v-43.42h8.48l1.36,5.54c3.8-3.69,7.83-5.54,12.07-5.54v8.85c-4.08,0-7.73,1.7-10.96,5.09v29.48h-10.96Z"/>
            <path class="cls-1" d="M509.86,104.89v43.42h-8.56l-1.32-5.54c-4.99,3.69-10.28,5.54-15.88,5.54-8.88,0-13.31-5.25-13.31-15.75v-27.66h10.96v27.37c0,4.8,2.09,7.19,6.28,7.19,3.56,0,7.18-1.42,10.87-4.26v-30.31h10.96Z"/>
            <path class="cls-1" d="M552.24,147.06c-3.58.83-7.3,1.24-11.16,1.24-15.44,0-23.16-7.51-23.16-22.54,0-13.92,7.72-20.88,23.16-20.88,3.86,0,7.58.41,11.16,1.24v8.68c-3.58-.83-7.03-1.24-10.34-1.24-8.68,0-13.03,4.07-13.03,12.2,0,9.24,4.34,13.85,13.03,13.85,3.31,0,6.75-.41,10.34-1.24v8.68Z"/>
            <path class="cls-1" d="M558.86,97.86h8.1l1.65,7.03h10.92v8.68h-9.72v19.97c0,4.05,1.75,6.08,5.25,6.08h4.47v8.68h-9.76c-7.28,0-10.92-3.9-10.92-11.7v-38.75Z"/>
          </g>
        </g>
        <g>
          <g>
            <path class="cls-2" d="M38.44,27.18h116.59c6.04,0,10.95,4.91,10.95,10.95v115.68c0,6.82-5.53,12.35-12.35,12.35H39.23c-6.75,0-12.22-5.48-12.22-12.22V38.62c0-6.31,5.12-11.44,11.44-11.44Z" transform="translate(-35.41 61.2) rotate(-30)"/>
            <path class="cls-4" d="M117.89,5.76c3.79,0,7.49,1.96,9.51,5.47l57.84,100.18c3.4,5.88,1.36,13.47-4.52,16.87l-99.08,57.2c-1.91,1.1-4.01,1.63-6.08,1.63-4.23,0-8.36-2.19-10.62-6.1L7.29,81.14c-3.15-5.45-1.26-12.48,4.19-15.62L112.45,7.22c1.71-.99,3.59-1.46,5.44-1.46M117.89,0h0c-2.92,0-5.8.77-8.32,2.23L8.6,60.53c-3.97,2.29-6.81,6-8,10.45s-.59,9.08,1.7,13.05l57.66,99.87c3.2,5.54,9.18,8.98,15.61,8.98,3.14,0,6.24-.83,8.96-2.4l99.08-57.2c4.18-2.41,7.17-6.32,8.42-11,1.25-4.68.62-9.56-1.79-13.74L132.39,8.35c-2.97-5.15-8.53-8.35-14.5-8.35h0Z"/>
          </g>
          <path class="cls-3" d="M142.87,83.88l-13.45-3.96s1.38-15.97,1.85-16.74c-.7.49.03-.03.03-.03l2.76-14.45-6.87-9.6-6.87,3.24.04,1.28-12.39-3.05-12.72-1.05-11.58,2.18-5.2.64-6.87-3.24-6.87,9.6c-.66-.06,2.76,14.45,2.76,14.45,0,0,.71.54.03.03.47.82,1.85,16.74,1.85,16.74l-15.36,3.96-.49,12.92,1.05,13.42.74,11.79,3.45,13.05.66,7.93h3.33s1.38-19.11,1.67-19.72l.47-3.35-.35,2.65,1.83-1.34h4.03l.3,6.76h4.63l1.2-6.76h43.98l1.49,6.24h3.93l.55-6.24h4.24l1.78,2.04c.29.61,1.67,19.72,1.67,19.72h3.33l.66-7.93,3.45-13.05.74-11.79,1.05-13.42-.49-12.92Z"/>
          <path class="cls-4" d="M63.24,144.44c-.72,0-1.3-.58-1.3-1.3,0-.02,0-.03,0-.04h-1.26c-.13.59-.65,1.03-1.27,1.03-.72,0-1.3-.58-1.3-1.3,0-.58.38-1.08.92-1.24l-.45-5.36c-.64-.08-1.13-.63-1.13-1.29,0-.5.28-.94.71-1.16l-2.78-10.53c-.74.04-1.36-.56-1.36-1.3,0-.59.39-1.09.95-1.25l-.58-9.19c-.63-.09-1.11-.63-1.11-1.28,0-.58.38-1.08.93-1.24l-.87-11.18c-.63-.1-1.1-.64-1.1-1.28s.47-1.18,1.09-1.28l.38-10.01c-.5-.19-.85-.67-.85-1.22,0-.72.58-1.3,1.3-1.3.49,0,.92.27,1.15.69l12.73-3.29c-.02-.08-.03-.17-.03-.25,0-.57.37-1.07.9-1.24-.43-4.89-1.06-11.37-1.45-13.95h-.02c-.72,0-1.3-.58-1.3-1.3,0-.52.32-1,.8-1.2l-2.31-12.1c-.68-.04-1.23-.6-1.23-1.3s.58-1.3,1.3-1.3c.22,0,.44.06.63.17l5.09-7.12c-.12-.2-.19-.43-.19-.67,0-.72.58-1.3,1.3-1.3.68,0,1.24.53,1.29,1.19l5.54,2.61.07-.03s.1-.02.14.01c0,0,.02.01.02.02l3.64-.45c.06-.66.62-1.18,1.29-1.18.53,0,1,.32,1.2.8l9.03-1.7c.02-.7.59-1.27,1.3-1.27.66,0,1.21.49,1.29,1.13l10.17.84c.19-.49.67-.82,1.21-.82.69,0,1.26.55,1.3,1.23l9.7,2.39c.14-.48.53-.84,1.03-.92.01-.03.03-.05.06-.07.04-.03.1-.03.14-.01l.07.03,5.58-2.63c-.02-.1-.04-.2-.04-.3,0-.72.58-1.3,1.3-1.3s1.3.58,1.3,1.3c0,.32-.12.64-.34.87l5.36,7.49c.16-.07.34-.11.52-.11.72,0,1.3.58,1.3,1.3s-.57,1.28-1.27,1.3l-2.3,12.04c.33.25.52.63.52,1.04,0,.61-.43,1.13-1.01,1.26-.38,2.52-1,8.83-1.45,13.99.53.17.9.67.9,1.24,0,.1-.01.2-.03.29l10.98,3.24c.22-.42.66-.68,1.14-.68.72,0,1.3.58,1.3,1.3,0,.59-.41,1.11-.98,1.26l.39,10.32c.61.11,1.08.64,1.08,1.28s-.49,1.2-1.13,1.29l-.85,10.86c.49.19.83.67.83,1.21,0,.6-.42,1.12-1,1.26l-.59,9.32c.56.15.96.66.96,1.25,0,.72-.58,1.3-1.3,1.3-.03,0-.06,0-.09,0l-2.76,10.43c.43.22.71.67.71,1.16,0,.65-.5,1.21-1.14,1.29l-.44,5.31c.64.08,1.14.63,1.14,1.29,0,.72-.58,1.3-1.3,1.3-.62,0-1.15-.43-1.27-1.03h-.99c-.12.59-.65,1.03-1.27,1.03-.72,0-1.3-.58-1.3-1.3,0-.58.39-1.09.94-1.25-.44-6.04-1.06-14.03-1.39-17.07-.68-.04-1.21-.61-1.21-1.29,0-.28.09-.55.26-.78l-.47-.54c-.21.14-.46.21-.71.21-.47,0-.9-.25-1.13-.66h-1.37c-.11.54-.56.95-1.11,1.02l-.33,3.68c.54.16.92.67.92,1.24,0,.72-.58,1.3-1.3,1.3-.62,0-1.15-.43-1.27-1.03h-1.7c-.13.59-.65,1.03-1.27,1.03-.72,0-1.3-.58-1.3-1.3,0-.63.45-1.16,1.05-1.27l-.88-3.66c-.08.02-.16.02-.24.02-.62,0-1.14-.43-1.27-1.03h-11.79c-.13.59-.65,1.03-1.27,1.03s-1.15-.43-1.27-1.03h-10.84c-.23.41-.65.66-1.13.66s-.9-.25-1.13-.66h-13.58c-.12.58-.62,1.01-1.22,1.03l-.75,4.23c.48.2.81.67.81,1.2,0,.72-.58,1.3-1.3,1.3-.62,0-1.15-.43-1.27-1.03h-2.27c-.25.32-.63.51-1.03.51-.72,0-1.3-.58-1.3-1.3,0-.57.38-1.08.92-1.24l-.17-3.79c-.37-.17-.64-.51-.72-.91h-1.61c-.21.46-.67.76-1.18.76-.3,0-.59-.1-.83-.3l-.43.32c.29.24.45.6.45.98,0,.72-.58,1.3-1.3,1.3-.01,0-.02,0-.03,0-.31,2.92-.93,10.73-1.41,17.35.06,0,.12-.01.17-.01.72,0,1.3.58,1.3,1.3s-.58,1.3-1.3,1.3ZM135.04,142.56h.99c.1-.46.43-.83.89-.97l.44-5.29-2.78,5.52c.24.19.4.45.46.74ZM60.68,142.56h1.4c.03-.06.07-.13.12-.18l-3.06-6.08.44,5.24c.55.07.99.48,1.11,1.02ZM59.56,135.95l2.96,5.88c.31-4.16.98-13.19,1.37-16.98l-4.35,9.06c.32.25.51.62.51,1.03s-.18.77-.49,1.01ZM133.95,141.54c.05,0,.1.02.15.03l2.83-5.62c-.31-.25-.49-.61-.49-1.01s.19-.78.51-1.03l-4.35-9.06c.41,3.92,1.12,13.53,1.35,16.69ZM58.75,133.64c.1,0,.21.01.31.04l4.57-9.51c-.25-.22-.39-.52-.42-.85l-6.67-.92c-.11.31-.34.57-.63.72l2.78,10.53s.04,0,.07,0ZM132.9,124.24l4.54,9.44c.12-.03.25-.04.37-.04l2.76-10.44c-.31-.17-.55-.46-.64-.81l-6.52.9c-.03.37-.21.71-.5.93ZM71.94,127.64h2.03c.05-.22.15-.43.31-.6l-3.35-4.59c-.09.02-.17.03-.26.03h0l.16,3.62c.64.08,1.14.63,1.14,1.29,0,.08,0,.17-.03.25ZM122.6,127.12h1.7c.04-.18.12-.36.24-.51l-3.8-4.38s-.02.01-.02.02l.93,3.89c.48.12.86.51.96.99ZM75.31,126.76h0,0ZM71.43,122.23l3.28,4.5c.15-.07.32-.11.48-.11l.75-4.23c-.4-.16-.69-.51-.78-.93h-3.22c-.07.31-.25.59-.5.78ZM121.1,121.83l3.85,4.43c.15-.08.31-.13.47-.15l.33-3.68c-.45-.14-.79-.51-.89-.97h-3.61c-.03.13-.08.26-.14.38ZM56.61,121.87l6.66.92c.04-.13.11-.24.19-.35l-8.33-11.03c-.07.03-.13.06-.2.07l.58,9.19c.6.09,1.06.58,1.11,1.19ZM133.09,122.36c.11.12.19.26.24.41l6.57-.91c.09-.56.53-1,1.08-1.08l.58-9.28c-.08-.01-.15-.04-.23-.06l-8.25,10.92ZM55.56,111.08l8.31,11c.13-.07.28-.12.42-.15l.29-2.09.79-5.92c-.49-.19-.82-.67-.82-1.21h0s-8.79-1.94-8.79-1.94c-.05.11-.12.22-.2.31ZM130.98,121.51l.5.57c.05-.03.1-.05.16-.07l-1.3-7.97c-.75.06-1.4-.54-1.4-1.29,0-.15.03-.3.08-.44l-7.04-1.54c-.04.08-.09.17-.14.24l7.55,8.61c.16-.07.34-.11.51-.11.72,0,1.3.58,1.3,1.3,0,.25-.07.49-.21.7ZM64.42,122.07h0,0ZM132.17,121.92c.17,0,.34.05.49.12l8.22-10.89c-.1-.1-.19-.23-.25-.36l-9.1,1.99c-.01.46-.26.88-.66,1.1l1.3,8.05ZM140.03,121.99h0,0ZM65.95,114l-1.09,7.92.59-.43c-.09-.18-.14-.38-.14-.58,0-.72.58-1.3,1.3-1.3.34,0,.66.13.9.36l13.36-9.8c-.13-.18-.22-.38-.25-.6l-13-.68c-.14.53-.59.91-1.14.96l-.2,1.63c.52.18.88.67.88,1.23,0,.68-.53,1.25-1.21,1.29ZM127.39,120.91h1.21s0-.07,0-.1c0-.32.11-.61.32-.85l-7.49-8.59c-.47.26-1.1.19-1.5-.17l-13.09,9.46c.04.08.07.17.08.26h11.79c.13-.59.65-1.03,1.27-1.03s1.15.43,1.27,1.03h3.61c.13-.59.65-1.03,1.27-1.03s1.14.43,1.27,1.03ZM93.7,120.91h10.68c.11-.5.5-.89,1-1v-8.38c-.23,0-.45-.07-.64-.19l-11.07,9.15c.03.11.04.21.04.32,0,.03,0,.07,0,.1ZM77.69,120.91h13.42s0-.07,0-.1c0-.2.05-.4.14-.58l-8.43-9.92c-.39.39-1.03.49-1.53.22l-13.48,9.89c.06.15.09.32.1.49h1.49c.13-.59.65-1.03,1.27-1.03s1.15.43,1.27,1.03h3.22c.12-.59.65-1.03,1.27-1.03s1.15.43,1.27,1.03ZM105.91,119.91c.22.05.43.15.6.31l13.09-9.46c-.04-.08-.07-.17-.08-.25h-12.84c-.09.42-.38.76-.77.93v8.48ZM92.4,119.51c.4,0,.77.18,1.01.49l10.93-9.04c-.1-.15-.17-.33-.2-.51l-20.97-.75s-.03.1-.04.15l8.46,9.96c.23-.19.52-.29.82-.29ZM130.53,111.48c.4.1.74.38.9.76l9.08-1.98s0-.02,0-.03c0-.28.09-.54.25-.77l-11.3-11.19c-.1.06-.2.11-.31.15l1.39,13.06ZM55.88,110.24l8.79,1.93c.19-.41.58-.7,1.04-.75l.22-1.64c-.52-.18-.86-.67-.86-1.22,0-.68.52-1.24,1.18-1.29l1.12-9.14s-.09-.03-.13-.05l-11.57,11.46c.13.21.21.45.21.7h0ZM122.09,110.24l7.23,1.58c.18-.18.42-.31.67-.35l-1.38-12.99c-.1-.01-.2-.03-.3-.07l-6.63,10.88c.26.24.41.58.41.94h0ZM106.68,109.96h12.84c.08-.39.35-.73.72-.9l-2.31-9.87c-.32-.02-.61-.16-.82-.37l-10.53,10.84c.05.1.08.2.11.31ZM83.18,109.15l20.98.76c.06-.22.17-.42.33-.59l-9.04-10.32c-.21.13-.45.2-.69.2-.36,0-.69-.14-.94-.4l-10.68,10.24s.02.08.03.12ZM105.42,108.94c.31,0,.59.1.82.3l10.56-10.88c-.02-.07-.04-.13-.06-.2l-20.64-.21s-.03,0-.04,0h-.01c0,.24-.09.48-.22.68l9.1,10.4c.15-.06.31-.09.47-.09ZM54.76,108.95c.19.02.38.09.54.2l11.5-11.39c-.09-.1-.16-.21-.22-.33l-11.91-.26c-.17.3-.45.51-.78.6l.87,11.17ZM129.83,97.89l11.33,11.22c.18-.1.38-.16.58-.17l.84-10.81c-.45-.13-.79-.49-.9-.95l-11.68.25c-.03.16-.09.32-.18.46ZM67.64,108.36l13.01.68c.05-.19.15-.36.28-.5l-12.58-10.5c-.14.07-.29.12-.44.14l-1.12,9.16c.45.16.78.55.86,1.02ZM120.79,108.94c.15,0,.29.03.43.07l6.63-10.88c-.17-.16-.29-.36-.36-.58l-7.42.53c-.02.06-.08.1-.14.1h-.65c-.09.43-.41.79-.82.94l2.3,9.82s.02,0,.03,0ZM81.9,108.1c.38,0,.74.17.98.45l10.65-10.22c-.05-.14-.07-.28-.07-.43l-24.56-.43c-.04.07-.08.14-.14.21l12.61,10.52c.16-.07.34-.11.52-.11ZM119.16,97.73h0,0ZM97.04,97.39h18.44s-10.68-2.48-10.68-2.48l-.42-.02c-.14.58-.66,1-1.26,1-.33,0-.65-.13-.89-.36l-5.18,1.86ZM70.97,96.98l22.61.39c.03-.06.06-.12.1-.17l-5.09-2.2c-.24.2-.53.31-.85.31-.5,0-.95-.29-1.17-.73l-5.97.94c-.16.55-.67.94-1.25.94-.44,0-.84-.22-1.08-.58l-7.31,1.1ZM119.35,96.44l-.16.9,7.45-.33-6.28-1.35c-.18.42-.56.72-1.01.78ZM94.76,96.6c.46,0,.88.24,1.11.63l6.04-2.17c-.04-.11-.07-.22-.08-.33h-.15s-.02.02-.02.02c-.03.04-.08.06-.13.07-.05,0-.1-.02-.12-.07l-.03-.04-12.43-.24s-.02.05-.03.07l5.18,2.24c.2-.12.43-.18.66-.18ZM113.79,96.45l3.14.73c.24-.36.64-.58,1.08-.58.26,0,.51.08.72.22l.07-.42c-.46-.13-.81-.51-.91-.98h-2.77c-.13.62-.69,1.07-1.34,1.03ZM129.84,96.51c.07.12.13.25.16.39l11.68-.25c.09-.5.46-.89.96-1.02l-.39-10.32c-.18-.03-.35-.1-.51-.2l-11.89,11.41ZM54.84,96.64l11.62.25h0c0-.18.03-.34.09-.49l-11.73-11.26c-.17.1-.36.16-.56.17l-.38,9.96c.57.15.97.66.97,1.25,0,.04,0,.07,0,.11ZM141.81,96.78h0,0ZM68.28,95.7c.42.18.7.57.76,1.02l9.03-1.39c0-.06-.01-.12-.01-.17,0-.25.07-.49.21-.7l-7.88-7.41c-.2.14-.44.22-.69.23l-1.43,8.42ZM120.47,95.13l7.09,1.53c.04-.09.09-.17.15-.25l-8.26-9.55c-.09.05-.19.09-.29.12l.36,6.93c.55.15.95.65.96,1.23ZM107.95,95.09l5.4,1.26c-.4-.17-.7-.54-.77-1l-4.64-.27ZM128.79,95.89c.24,0,.48.09.68.22l11.89-11.41c-.05-.08-.09-.17-.12-.26l-13.11,1.64c-.05.5-.36.92-.81,1.1l1.48,8.71ZM119.85,86.5l8.26,9.55s.1-.05.15-.07l-1.48-8.71c-.61-.02-1.12-.48-1.22-1.07l-5.49-.18c-.04.17-.12.33-.23.47ZM55.22,84.79l11.64,11.16c.24-.23.56-.36.9-.36l1.42-8.4c-.46-.18-.77-.61-.82-1.1l-12.97-1.62c-.04.11-.1.22-.17.32ZM79.8,93.94c.44.16.76.54.84,1l5.8-.89s0-.02,0-.04c0-.14.02-.28.07-.41l-7.15-8.13c-.08.05-.17.08-.26.11l.7,8.36ZM115.08,94.7l2.84.12c.13-.5.55-.87,1.05-.95l-.35-6.88c-.05,0-.1-.02-.15-.03l-3.78,7.19c.17.15.31.33.39.55ZM105,94.27l7.69.33c.06-.13.15-.25.25-.35l-5.08-7.68c-.37.25-.87.29-1.28.09l-4.15,6.82c.2-.12.43-.19.68-.19.59,0,1.1.39,1.25.95h.57s.05.02.07.03ZM89.04,93.94l11.98.24-5.95-9c-.3.16-.66.2-.99.1l-5.53,7.73c.29.23.47.57.48.94ZM70.76,86.65l7.89,7.42c.18-.12.39-.19.61-.21l-.69-8.24c-.47-.06-.86-.36-1.04-.8l-6.58,1.19c0,.23-.07.44-.19.63ZM108.24,86.17l5.15,7.78c.26-.1.55-.12.83-.04l3.78-7.19c-.24-.2-.4-.49-.45-.8l-9.1-.48s0,.03,0,.05c0,.24-.07.48-.2.69ZM95.48,84.82l6.04,9.13,4.64-7.62c-.2-.23-.31-.53-.31-.84,0-.08,0-.15.02-.23l-10.17-.87c-.04.16-.12.3-.22.43ZM79.77,85.11l7.03,8c.32-.33.8-.48,1.26-.36l5.54-7.75c-.2-.18-.35-.42-.41-.68l-13.19.26c-.04.19-.12.37-.23.53ZM120.1,85.49l5.49.18c.16-.63.79-1.08,1.46-.97l1.4-3.69c-.08-.04-.15-.09-.21-.15l-8.17,4.49s.03.1.03.15ZM127.54,84.89c.24.16.43.39.52.67l13.08-1.64-11.04-3.25c-.27.36-.72.55-1.16.5l-1.41,3.72ZM55.47,83.93l.2.03,12.76,1.6c.14-.4.47-.71.88-.83l-.2-3.57c-.34-.06-.65-.24-.85-.53l-12.79,3.3ZM69.85,84.7c.45.07.83.37,1,.79l6.58-1.19c0-.08.01-.16.03-.24l-7.23-3.27c-.16.16-.37.28-.59.34l.2,3.57ZM108.29,84.89l9.28.49c.04-.15.11-.3.2-.42l-3.96-4.36c-.44.28-1.06.26-1.48-.05l-4.23,4.08c.08.08.14.17.19.27ZM119.22,84.49c.23.07.42.21.58.39l8.1-4.45c-.08-.17-.12-.36-.12-.54,0-.24.07-.47.19-.67l-7.11-8.19c-.16.06-.34.08-.51.08l-.04,1.08c.56.15.96.66.96,1.25s-.42,1.12-.99,1.26l-1.05,9.79ZM95.74,83.85l10.35.89c.06-.09.14-.17.22-.24l-4.78-5.28c-.41.29-.97.31-1.4.06l-4.49,4.19c.06.12.1.25.11.38ZM114.2,80.22l3.97,4.38c.15-.09.32-.14.49-.17l.82-9.8c-.1-.04-.19-.09-.28-.16l-4.99,4.34c.13.21.2.44.2.69s-.08.5-.21.71ZM118.79,84.57h0,0ZM107.14,84.19c.18,0,.36.04.52.11l4.32-4.16c-.1-.18-.16-.38-.17-.58l-9.81-1.02c-.03.1-.07.19-.13.28l4.9,5.42c.12-.03.23-.05.35-.05ZM79.94,83.87c.02.06.04.12.06.18l13.19-.26c.03-.17.1-.33.2-.48l-4.84-4.12c-.47.36-1.18.35-1.63-.04-1.78,1.28-5.37,3.67-6.97,4.72ZM70.53,80.33l7.16,3.24c.18-.24.43-.41.72-.49l-.3-6.58c-.41-.23-.67-.66-.67-1.14,0-.43.21-.83.57-1.07l-.16-3.21c-.12,0-.23,0-.34-.01l-7.06,8.13c.12.2.19.43.19.67,0,.16-.03.31-.08.46ZM78.94,83.06c.26.04.5.16.68.34l6.92-4.75c-.07-.16-.1-.33-.1-.5,0-.03,0-.06,0-.1l-6.66-1.94c-.26.36-.69.58-1.13.54l.29,6.4ZM94.45,82.73c.31,0,.61.11.84.31l4.42-4.13c-.1-.15-.18-.31-.22-.49h-10.49c-.03.12-.07.24-.13.35l4.88,4.15c.21-.13.44-.2.69-.2ZM102.06,78l9.85,1.02c.06-.16.16-.3.28-.43l-4.32-5.94c-.43.37-1.12.41-1.59.07l-4.38,4.76c.09.15.15.32.17.5ZM69.45,78.59c.22.02.43.1.6.23l6.91-7.95c-.34-.24-.55-.63-.55-1.06,0-.16.03-.31.09-.46-2.77-1.7-6.36-3.9-8.14-5.03-.11.1-.23.19-.37.25.46,3.03,1.17,10.69,1.46,14.02ZM121.31,70.72l7.02,8.09c.18-.13.39-.2.6-.23.29-3.27.98-10.82,1.45-13.93-.2-.04-.39-.13-.55-.26-2.31,1.39-7.03,4.16-8.25,4.87.07.17.11.34.11.53,0,.35-.14.68-.39.92ZM113.11,78.21c.26,0,.51.08.73.22l5-4.35c-.1-.18-.16-.38-.17-.59l-10.36-1.72c-.01.15-.05.3-.11.45l4.43,6.08c.15-.06.32-.09.48-.09ZM89.01,77.89h10.49c.05-.22.15-.43.31-.6l-4.77-5.52c-.41.14-.89.05-1.22-.22l-5.04,5.84c.12.15.2.33.24.51ZM80,75.63l6.6,1.92c.07-.13.16-.24.26-.34l-3.54-5.94c-.34.07-.7,0-.99-.2l-2.77,3.3c.3.24.47.61.47,1,0,.09,0,.17-.03.26ZM100.77,76.86c.27,0,.53.09.75.24l4.38-4.76c-.12-.2-.18-.43-.18-.66,0-.06,0-.12.01-.19l-9.86-.6c-.07.23-.19.43-.37.59l4.74,5.48c.16-.07.34-.11.52-.11ZM87.74,76.86c.22,0,.43.06.63.16l5.11-5.91c-.06-.11-.09-.23-.12-.36l-9.05-.42c-.08.29-.25.54-.49.71l3.51,5.89c.13-.05.28-.07.42-.07ZM78.73,74.07c.11,0,.23.02.34.05l2.89-3.44c-.13-.2-.2-.44-.2-.68,0-.26.08-.51.22-.72l-3.62-4.62s-.05.01-.08.01l.05,3.99c.41.23.68.66.68,1.14s-.24.87-.62,1.11l.14,3.18c.07-.01.13-.02.2-.02ZM108.23,71.21l10.54,1.75c.04-.1.09-.19.15-.27l-5.09-5.37c-.46.24-1.05.18-1.44-.15l-4.31,3.76c.07.09.12.19.16.29ZM114.24,66.97l5.07,5.35c.12-.07.25-.12.38-.15l.1-1.22c-.42-.22-.69-.66-.69-1.15,0-.53.32-1,.8-1.2v-.2s.12-6.81.12-6.81c-.15-.05-.28-.12-.4-.21l-5.26,4.16c.11.19.17.41.17.63,0,.29-.1.57-.28.8ZM95.92,70.36l10.01.61c.09-.13.19-.24.32-.34l-4.49-5.1c-.23.2-.53.31-.84.31-.35,0-.69-.15-.93-.4l-4.38,4.23c.17.19.28.43.31.68ZM107.02,70.38c.23,0,.45.06.65.18l4.38-3.82c-.08-.15-.12-.32-.13-.49l-9.71-1.59c-.01.15-.06.3-.12.44l4.68,5.31c.08-.02.16-.02.25-.02ZM84.33,69.79l9.04.42c.02-.08.05-.17.09-.25l-4.13-4.58c-.44.16-.96.06-1.31-.25l-3.97,4.04c.14.18.24.39.27.62ZM89.8,65.09l4,4.44c.37-.32.92-.39,1.37-.19l4.53-4.37c-.05-.14-.07-.29-.07-.43,0-.04,0-.07,0-.1h-9.47c-.05.25-.18.48-.36.66ZM78.86,64.43l3.5,4.47c.38-.24.88-.26,1.28-.06l4.07-4.14c-.05-.1-.08-.22-.1-.33l-8.3-.59c-.08.26-.24.48-.46.65ZM68.66,63.87c1.78,1.12,5.37,3.33,8.13,5.02.24-.24.57-.38.91-.38l-.2-3.95c-.44-.22-.72-.67-.72-1.16s.27-.92.68-1.14l.13-6.86c-.2-.02-.39-.08-.55-.18l-8.46,7.54c.11.2.17.41.17.64,0,.17-.03.33-.09.48ZM120.45,68.51c.3.01.59.13.82.33l8.21-4.88c-.09-.18-.13-.37-.13-.56,0-.29.1-.57.28-.8l-8.37-7.38c-.17.11-.36.17-.57.18l.04,3.71c.57.15.97.66.97,1.25s-.42,1.12-1,1.26l-.26,6.89ZM120.04,68.71h0,0ZM102.14,64.1l9.86,1.62c.05-.14.13-.27.22-.38l-4.5-6.63c-.39.17-.86.13-1.21-.1l-4.69,5c.14.14.25.3.32.49ZM113.22,64.87c.28,0,.55.09.78.26l5.27-4.16c-.1-.19-.16-.4-.16-.62,0,0,0-.02,0-.02l-10.69-2.33c-.06.14-.14.27-.25.39l4.48,6.61c.18-.09.37-.13.57-.13ZM90.16,63.9h9.64c.07-.12.16-.23.26-.33l-5.16-6.04c-.33.16-.72.17-1.06.03l-4.15,5.59c.24.19.4.45.47.75ZM79.37,63.24l8.27.59c.04-.14.1-.27.18-.39l-4.27-6.69c-.28.17-.63.23-.95.16l-3.8,5.41c.32.21.52.55.57.93ZM100.92,63.24c.15,0,.29.02.43.07l4.78-5.09c-.12-.18-.19-.38-.21-.59l-10.37-.82c-.05.14-.13.27-.22.38l5.21,6.1c.12-.04.25-.06.38-.06ZM83.95,56.37l4.27,6.69c.29-.18.66-.23.99-.15l4.19-5.65c-.17-.18-.28-.39-.33-.63l-8.93-.65c-.04.14-.1.28-.18.39ZM67.48,62.09c.27,0,.53.09.74.25l8.43-7.51c-.15-.22-.23-.47-.23-.74,0-.09.01-.18.03-.27l-10.78-4.16c-.14.15-.31.26-.49.34l2.31,12.08ZM77.86,62.26h0s0,0,0,0ZM121.65,54.84l8.4,7.4c.27-.14.58-.18.87-.12l2.27-11.91c-.24-.1-.44-.27-.58-.49l-10.75,4.11c.02.09.03.18.03.27,0,.27-.08.52-.23.74ZM78.25,62.11s.02,0,.03,0l3.82-5.44c-.32-.24-.52-.63-.52-1.04,0-.37.16-.72.43-.96l-3.29-3.97c-.13.06-.28.09-.42.1l-.09,2.09c.49.2.81.67.81,1.2s-.34,1.03-.84,1.21l.08,6.79ZM108.51,57.47l10.72,2.33c.06-.12.13-.23.21-.32-.63-.8-1.55-1.95-2.47-3.11-.95-1.21-1.71-2.17-2.26-2.87l-.19-.25c-.45.14-.96,0-1.29-.33l-4.89,3.96c.1.18.15.38.16.58ZM115.03,52.98l4.86,6.18c.05-.02.11-.04.17-.06l.06-3.8c-.49-.19-.83-.67-.83-1.21s.32-1,.81-1.2l-.11-3.24-4.58,2.01c.03.12.05.23.05.35,0,.37-.16.72-.43.96ZM95.63,56.28l10.35.82c.05-.15.13-.29.22-.41l-4.03-4.78c-.47.35-1.17.33-1.62-.06l-5.03,4c.06.14.09.28.1.43ZM107.21,56.22c.29,0,.56.09.79.27l4.94-4c-.04-.1-.06-.2-.07-.3l-10.2-1.06c-.03.13-.07.26-.14.38l4.09,4.85c.18-.09.38-.14.59-.14ZM84.16,55.44l8.91.65c.04-.21.14-.4.28-.56l-3.61-5.06c-.29.08-.6.06-.87-.06l-4.8,4.72c.04.1.07.21.09.32ZM94.33,55.07c.33,0,.64.12.88.34l5.02-3.99c-.08-.17-.12-.36-.12-.55,0,0,0,0,0-.01l-9.61-.97c-.07.12-.17.23-.28.32l3.55,4.99c.18-.09.37-.13.56-.13ZM82.88,54.34c.32,0,.63.12.87.34l4.68-4.59c-.08-.09-.15-.19-.2-.3h-8.74c-.05.22-.15.43-.31.6l3.31,4.02c.13-.04.26-.06.39-.06ZM120.66,52.81c.39.02.75.22.98.54l10.78-4.12c-.01-.07-.02-.13-.02-.2,0-.1.01-.19.03-.29l-11.17-5.17c0,.05.01.1.01.16,0,.57-.37,1.07-.91,1.24v.28s.23,3.75.23,3.75c0,.02.01.03.01.05v.26s0,.03,0,.04l.04,3.48ZM65.94,49.2l10.72,4.14c.23-.31.59-.51.97-.54l.04-2.11c-.46-.21-.76-.67-.76-1.18,0-.59.39-1.09.95-1.25l.23-5.15-12.09,5.6s0,.06,0,.09c0,.14-.02.27-.07.4ZM102.67,50.58l10.25,1.07c.05-.17.13-.32.25-.46l-5-8.94c-.31.11-.64.1-.94-.03l-4.89,7.74c.17.17.28.38.34.61ZM115.06,51.1s.06.06.09.1l4.81-2.11-.13-3.69-4.78,5.71ZM108.63,41.97l4.97,8.89c.31-.15.69-.17,1.01-.05l4.93-5.88c-.45-.16-.77-.55-.84-1.03l-9.75-2.4c-.07.18-.18.34-.31.47ZM90.68,49.37l9.55.96c.1-.21.25-.39.44-.52l-5.17-8.7c-.27.09-.56.09-.83,0l-4.28,7.26c.2.23.31.53.31.84,0,.05,0,.11-.01.16ZM101.4,49.58c.16,0,.33.03.48.09l4.9-7.75c-.21-.23-.34-.52-.35-.83l-10.12-.83c-.07.22-.19.42-.36.58l5.21,8.77c.08-.01.16-.02.24-.02ZM79.48,49.24h8.61s0-.02,0-.03c0-.24.07-.47.19-.68l-4.16-5.32c-.34.17-.75.18-1.1.02l-3.92,5.34c.19.18.32.42.38.67ZM78.41,48.23c.08.01.16.03.24.06l3.94-5.38c-.12-.13-.2-.28-.26-.44l-3.69.45-.23,5.31ZM120.88,42.78l11.77,5.46s.05-.07.08-.1l-5.36-7.49c-.16.07-.34.11-.52.11-.41,0-.79-.19-1.03-.51l-5.1,2.4c.06.04.11.09.16.13ZM65.75,48.03c.04.05.07.11.1.16l2.17-1h0l9.73-4.51-4.98-2.35c-.19.5-.67.85-1.22.85-.26,0-.52-.08-.73-.23l-5.06,7.08ZM84.54,42.88l4.12,5.26c.38-.26.88-.3,1.29-.1l4.25-7.21c-.14-.13-.25-.28-.32-.46l-9.03,1.7c0,.3-.11.58-.3.8Z"/>
        </g>
      </g>
    </g>
  </g>
</svg>